<svg width="1516" height="1516" viewBox="0 0 1516 1516" fill="none" xmlns="http://www.w3.org/2000/svg">
<rect width="1376.03" height="767.907" rx="99" transform="matrix(0.707107 0.707107 0.707107 -0.707107 0 542.992)" fill="#FFD3C0"/>
<g clip-path="url(#clip0_456_2055)">
<path d="M542.704 527.661C546.397 527.661 549.391 524.668 549.391 520.975C549.391 517.282 546.397 514.288 542.704 514.288C539.011 514.288 536.018 517.282 536.018 520.975C536.018 524.668 539.011 527.661 542.704 527.661Z" fill="#FDCB6E"/>
<path d="M564.992 505.373C568.685 505.373 571.679 502.379 571.679 498.686C571.679 494.994 568.685 492 564.992 492C561.299 492 558.306 494.994 558.306 498.686C558.306 502.379 561.299 505.373 564.992 505.373Z" fill="#FDCB6E"/>
<path d="M587.281 527.661C590.973 527.661 593.967 524.668 593.967 520.975C593.967 517.282 590.973 514.288 587.281 514.288C583.588 514.288 580.594 517.282 580.594 520.975C580.594 524.668 583.588 527.661 587.281 527.661Z" fill="#FDCB6E"/>
<path d="M609.569 505.373C613.262 505.373 616.255 502.379 616.255 498.686C616.255 494.994 613.262 492 609.569 492C605.876 492 602.882 494.994 602.882 498.686C602.882 502.379 605.876 505.373 609.569 505.373Z" fill="#FDCB6E"/>
<path d="M631.857 527.661C635.55 527.661 638.543 524.668 638.543 520.975C638.543 517.282 635.55 514.288 631.857 514.288C628.164 514.288 625.171 517.282 625.171 520.975C625.171 524.668 628.164 527.661 631.857 527.661Z" fill="#FDCB6E"/>
<path d="M498.128 572.238C501.82 572.238 504.814 569.244 504.814 565.551C504.814 561.858 501.82 558.865 498.128 558.865C494.435 558.865 491.441 561.858 491.441 565.551C491.441 569.244 494.435 572.238 498.128 572.238Z" fill="#FDCB6E"/>
<path d="M520.416 549.949C524.109 549.949 527.102 546.956 527.102 543.263C527.102 539.57 524.109 536.576 520.416 536.576C516.723 536.576 513.729 539.57 513.729 543.263C513.729 546.956 516.723 549.949 520.416 549.949Z" fill="#FDCB6E"/>
<path d="M542.704 572.238C546.397 572.238 549.391 569.244 549.391 565.551C549.391 561.858 546.397 558.865 542.704 558.865C539.011 558.865 536.018 561.858 536.018 565.551C536.018 569.244 539.011 572.238 542.704 572.238Z" fill="#FDCB6E"/>
<path d="M564.992 549.949C568.685 549.949 571.679 546.956 571.679 543.263C571.679 539.57 568.685 536.576 564.992 536.576C561.299 536.576 558.306 539.57 558.306 543.263C558.306 546.956 561.299 549.949 564.992 549.949Z" fill="#FDCB6E"/>
<path d="M587.281 572.238C590.973 572.238 593.967 569.244 593.967 565.551C593.967 561.858 590.973 558.865 587.281 558.865C583.588 558.865 580.594 561.858 580.594 565.551C580.594 569.244 583.588 572.238 587.281 572.238Z" fill="#FDCB6E"/>
<path d="M609.569 549.949C613.262 549.949 616.255 546.956 616.255 543.263C616.255 539.57 613.262 536.576 609.569 536.576C605.876 536.576 602.882 539.57 602.882 543.263C602.882 546.956 605.876 549.949 609.569 549.949Z" fill="#FDCB6E"/>
<path d="M631.857 572.238C635.55 572.238 638.543 569.244 638.543 565.551C638.543 561.858 635.55 558.865 631.857 558.865C628.164 558.865 625.171 561.858 625.171 565.551C625.171 569.244 628.164 572.238 631.857 572.238Z" fill="#FDCB6E"/>
<path d="M453.551 616.814C457.244 616.814 460.238 613.82 460.238 610.128C460.238 606.435 457.244 603.441 453.551 603.441C449.858 603.441 446.865 606.435 446.865 610.128C446.865 613.82 449.858 616.814 453.551 616.814Z" fill="#FDCB6E"/>
<path d="M475.839 594.526C479.532 594.526 482.526 591.532 482.526 587.839C482.526 584.147 479.532 581.153 475.839 581.153C472.147 581.153 469.153 584.147 469.153 587.839C469.153 591.532 472.147 594.526 475.839 594.526Z" fill="#FDCB6E"/>
<path d="M498.128 616.814C501.82 616.814 504.814 613.82 504.814 610.128C504.814 606.435 501.82 603.441 498.128 603.441C494.435 603.441 491.441 606.435 491.441 610.128C491.441 613.82 494.435 616.814 498.128 616.814Z" fill="#FDCB6E"/>
<path d="M520.416 594.526C524.109 594.526 527.102 591.532 527.102 587.839C527.102 584.147 524.109 581.153 520.416 581.153C516.723 581.153 513.729 584.147 513.729 587.839C513.729 591.532 516.723 594.526 520.416 594.526Z" fill="#FDCB6E"/>
<path d="M542.704 616.814C546.397 616.814 549.391 613.82 549.391 610.128C549.391 606.435 546.397 603.441 542.704 603.441C539.011 603.441 536.018 606.435 536.018 610.128C536.018 613.82 539.011 616.814 542.704 616.814Z" fill="#FDCB6E"/>
<path d="M564.992 594.526C568.685 594.526 571.679 591.532 571.679 587.839C571.679 584.147 568.685 581.153 564.992 581.153C561.299 581.153 558.306 584.147 558.306 587.839C558.306 591.532 561.299 594.526 564.992 594.526Z" fill="#FDCB6E"/>
<path d="M587.281 616.814C590.973 616.814 593.967 613.82 593.967 610.128C593.967 606.435 590.973 603.441 587.281 603.441C583.588 603.441 580.594 606.435 580.594 610.128C580.594 613.82 583.588 616.814 587.281 616.814Z" fill="#FDCB6E"/>
<path d="M609.569 594.526C613.262 594.526 616.255 591.532 616.255 587.839C616.255 584.147 613.262 581.153 609.569 581.153C605.876 581.153 602.882 584.147 602.882 587.839C602.882 591.532 605.876 594.526 609.569 594.526Z" fill="#FDCB6E"/>
<path d="M631.857 616.814C635.55 616.814 638.543 613.82 638.543 610.128C638.543 606.435 635.55 603.441 631.857 603.441C628.164 603.441 625.171 606.435 625.171 610.128C625.171 613.82 628.164 616.814 631.857 616.814Z" fill="#FDCB6E"/>
<path d="M475.839 639.102C479.532 639.102 482.526 636.109 482.526 632.416C482.526 628.723 479.532 625.729 475.839 625.729C472.147 625.729 469.153 628.723 469.153 632.416C469.153 636.109 472.147 639.102 475.839 639.102Z" fill="#FDCB6E"/>
<path d="M498.128 661.391C501.82 661.391 504.814 658.397 504.814 654.704C504.814 651.011 501.82 648.018 498.128 648.018C494.435 648.018 491.441 651.011 491.441 654.704C491.441 658.397 494.435 661.391 498.128 661.391Z" fill="#FDCB6E"/>
<path d="M520.416 639.102C524.109 639.102 527.102 636.109 527.102 632.416C527.102 628.723 524.109 625.729 520.416 625.729C516.723 625.729 513.729 628.723 513.729 632.416C513.729 636.109 516.723 639.102 520.416 639.102Z" fill="#FDCB6E"/>
<path d="M542.704 661.391C546.397 661.391 549.391 658.397 549.391 654.704C549.391 651.011 546.397 648.018 542.704 648.018C539.011 648.018 536.018 651.011 536.018 654.704C536.018 658.397 539.011 661.391 542.704 661.391Z" fill="#FDCB6E"/>
<path d="M564.992 639.102C568.685 639.102 571.679 636.109 571.679 632.416C571.679 628.723 568.685 625.729 564.992 625.729C561.299 625.729 558.306 628.723 558.306 632.416C558.306 636.109 561.299 639.102 564.992 639.102Z" fill="#FDCB6E"/>
<path d="M587.281 661.391C590.973 661.391 593.967 658.397 593.967 654.704C593.967 651.011 590.973 648.018 587.281 648.018C583.588 648.018 580.594 651.011 580.594 654.704C580.594 658.397 583.588 661.391 587.281 661.391Z" fill="#FDCB6E"/>
<path d="M609.569 639.102C613.262 639.102 616.255 636.109 616.255 632.416C616.255 628.723 613.262 625.729 609.569 625.729C605.876 625.729 602.882 628.723 602.882 632.416C602.882 636.109 605.876 639.102 609.569 639.102Z" fill="#FDCB6E"/>
<path d="M631.857 661.391C635.55 661.391 638.543 658.397 638.543 654.704C638.543 651.011 635.55 648.018 631.857 648.018C628.164 648.018 625.171 651.011 625.171 654.704C625.171 658.397 628.164 661.391 631.857 661.391Z" fill="#FDCB6E"/>
<path d="M520.416 683.679C524.109 683.679 527.102 680.685 527.102 676.992C527.102 673.3 524.109 670.306 520.416 670.306C516.723 670.306 513.729 673.3 513.729 676.992C513.729 680.685 516.723 683.679 520.416 683.679Z" fill="#FDCB6E"/>
<path d="M542.704 705.967C546.397 705.967 549.391 702.973 549.391 699.281C549.391 695.588 546.397 692.594 542.704 692.594C539.011 692.594 536.018 695.588 536.018 699.281C536.018 702.973 539.011 705.967 542.704 705.967Z" fill="#FDCB6E"/>
<path d="M564.992 683.679C568.685 683.679 571.679 680.685 571.679 676.992C571.679 673.3 568.685 670.306 564.992 670.306C561.299 670.306 558.306 673.3 558.306 676.992C558.306 680.685 561.299 683.679 564.992 683.679Z" fill="#FDCB6E"/>
<path d="M587.281 705.967C590.973 705.967 593.967 702.973 593.967 699.281C593.967 695.588 590.973 692.594 587.281 692.594C583.588 692.594 580.594 695.588 580.594 699.281C580.594 702.973 583.588 705.967 587.281 705.967Z" fill="#FDCB6E"/>
<path d="M609.569 683.679C613.262 683.679 616.255 680.685 616.255 676.992C616.255 673.3 613.262 670.306 609.569 670.306C605.876 670.306 602.882 673.3 602.882 676.992C602.882 680.685 605.876 683.679 609.569 683.679Z" fill="#FDCB6E"/>
<path d="M631.857 705.967C635.55 705.967 638.543 702.973 638.543 699.281C638.543 695.588 635.55 692.594 631.857 692.594C628.164 692.594 625.171 695.588 625.171 699.281C625.171 702.973 628.164 705.967 631.857 705.967Z" fill="#FDCB6E"/>
<path d="M564.992 728.255C568.685 728.255 571.679 725.262 571.679 721.569C571.679 717.876 568.685 714.882 564.992 714.882C561.299 714.882 558.306 717.876 558.306 721.569C558.306 725.262 561.299 728.255 564.992 728.255Z" fill="#FDCB6E"/>
<path d="M587.281 750.543C590.973 750.543 593.967 747.55 593.967 743.857C593.967 740.164 590.973 737.171 587.281 737.171C583.588 737.171 580.594 740.164 580.594 743.857C580.594 747.55 583.588 750.543 587.281 750.543Z" fill="#FDCB6E"/>
<path d="M609.569 728.255C613.262 728.255 616.255 725.262 616.255 721.569C616.255 717.876 613.262 714.882 609.569 714.882C605.876 714.882 602.882 717.876 602.882 721.569C602.882 725.262 605.876 728.255 609.569 728.255Z" fill="#FDCB6E"/>
<path d="M631.857 750.543C635.55 750.543 638.543 747.55 638.543 743.857C638.543 740.164 635.55 737.171 631.857 737.171C628.164 737.171 625.171 740.164 625.171 743.857C625.171 747.55 628.164 750.543 631.857 750.543Z" fill="#FDCB6E"/>
<path d="M609.569 772.832C613.262 772.832 616.255 769.838 616.255 766.145C616.255 762.452 613.262 759.459 609.569 759.459C605.876 759.459 602.882 762.452 602.882 766.145C602.882 769.838 605.876 772.832 609.569 772.832Z" fill="#FDCB6E"/>
</g>
<defs>
<clipPath id="clip0_456_2055">
<rect width="254" height="289" fill="white" transform="translate(380 492)"/>
</clipPath>
</defs>
</svg>
