<svg width="1445" height="1414" viewBox="0 0 1445 1414" fill="none" xmlns="http://www.w3.org/2000/svg">
<path d="M0 927.256V0.145874H1444.4V1413.08C1443.07 1329.41 828.23 749.121 0 927.256Z" fill="#FFF2F0" fill-opacity="0.25"/>
<path d="M0 927.256V0.145874H1444.4V1413.08C1443.07 1329.41 828.23 749.121 0 927.256Z" fill="url(#paint0_radial_92_4)" fill-opacity="0.5"/>
<path d="M0 927.256V0.145874H1444.4V1413.08C1443.07 1329.41 828.23 749.121 0 927.256Z" fill="url(#paint1_radial_92_4)" fill-opacity="0.5"/>
<path d="M0 927.256V0.145874H1444.4V1413.08C1443.07 1329.41 828.23 749.121 0 927.256Z" fill="url(#paint2_radial_92_4)" fill-opacity="0.2"/>
<path d="M0 927.256V0.145874H1444.4V1413.08C1443.07 1329.41 828.23 749.121 0 927.256Z" fill="url(#paint3_radial_92_4)" fill-opacity="0.2"/>
<defs>
<radialGradient id="paint0_radial_92_4" cx="0" cy="0" r="1" gradientUnits="userSpaceOnUse" gradientTransform="translate(1240.34 987.984) rotate(74.9153) scale(230.615 236.132)">
<stop stop-color="#48CAE4"/>
<stop offset="1" stop-color="#90E0EF" stop-opacity="0"/>
</radialGradient>
<radialGradient id="paint1_radial_92_4" cx="0" cy="0" r="1" gradientUnits="userSpaceOnUse" gradientTransform="translate(68.0189 858.431) rotate(-9.04375) scale(360.581 377.182)">
<stop stop-color="#48CAE4"/>
<stop offset="1" stop-color="#90E0EF" stop-opacity="0"/>
</radialGradient>
<radialGradient id="paint2_radial_92_4" cx="0" cy="0" r="1" gradientUnits="userSpaceOnUse" gradientTransform="translate(548.152 336.173) rotate(60.6845) scale(204.298 210.041)">
<stop stop-color="#F4A261"/>
<stop offset="0.449664" stop-color="#F98C35"/>
<stop offset="1" stop-color="#FF7100" stop-opacity="0"/>
</radialGradient>
<radialGradient id="paint3_radial_92_4" cx="0" cy="0" r="1" gradientUnits="userSpaceOnUse" gradientTransform="translate(1320.37 133.747) rotate(148.461) scale(286.37 297.817)">
<stop stop-color="#F4A261"/>
<stop offset="0.449664" stop-color="#F98C35"/>
<stop offset="1" stop-color="#FF7100" stop-opacity="0"/>
</radialGradient>
</defs>
</svg>
