<svg width="595" height="535" viewBox="0 0 595 535" fill="none" xmlns="http://www.w3.org/2000/svg">
<rect x="38" width="557" height="535" rx="109" fill="#CCC19B" fill-opacity="0.4"/>
<rect y="91" width="75.9815" height="373" fill="#CECECE"/>
<rect x="3.30347" y="97.6071" width="29.7319" height="31.2335" fill="#6A6A6A"/>
<rect x="41.1443" y="97.6071" width="29.7319" height="31.2335" fill="#A9A8A8"/>
<rect x="3.30347" y="137.85" width="29.7319" height="31.2335" fill="#A9A8A8"/>
<rect x="41.1443" y="137.85" width="29.7319" height="31.2335" fill="#A9A8A8"/>
<rect x="3.30347" y="178.093" width="29.7319" height="31.2335" fill="#A9A8A8"/>
<rect x="41.1443" y="178.093" width="29.7319" height="31.2335" fill="#A9A8A8"/>
<rect x="3.30347" y="218.337" width="29.7319" height="31.2335" fill="#A9A8A8"/>
<rect x="41.1443" y="218.337" width="29.7319" height="31.2335" fill="#A9A8A8"/>
<rect x="3.30347" y="258.58" width="29.7319" height="31.2335" fill="#A9A8A8"/>
<g clip-path="url(#clip0_197_1885)">
<path d="M22.8327 262.583C22.5552 262.712 22.3778 262.886 21.952 263.447C21.7261 263.746 19.9614 266.078 18.0322 268.628L14.5222 273.264L14.6964 273.335C15.5933 273.719 16.4289 274.815 16.7708 276.072C16.8128 276.219 16.8579 276.34 16.8741 276.34C16.8999 276.34 23.7683 266.443 24.2361 265.73C24.4425 265.413 24.5522 265.106 24.6006 264.705C24.7135 263.755 24.2651 262.81 23.5812 262.56C23.3585 262.48 23.0327 262.489 22.8327 262.583Z" fill="white"/>
<path d="M13.3156 274.49C12.8768 274.566 12.3187 274.869 11.9155 275.248C11.6186 275.528 11.3025 276.032 10.8831 276.888C10.6315 277.41 10.4024 277.824 10.254 278.025C9.83783 278.604 9.29584 279.032 8.54416 279.376C8.31188 279.483 8.12799 279.59 8.13444 279.616C8.15702 279.759 8.2893 280.075 8.43447 280.339C8.82483 281.056 9.63459 281.707 10.5379 282.028C11.2541 282.282 12.0445 282.353 12.7058 282.229C14.4705 281.89 15.6545 280.686 15.9997 278.881C16.09 278.413 16.0836 277.534 15.9836 277.031C15.7448 275.8 15.0899 274.846 14.2866 274.561C14.035 274.472 13.6027 274.441 13.3156 274.49Z" fill="white"/>
</g>
<rect x="41.1443" y="258.58" width="29.7319" height="31.2335" fill="#A9A8A8"/>
<rect x="3.30347" y="298.823" width="29.7319" height="31.2335" fill="#A9A8A8"/>
<rect x="41.1443" y="298.823" width="29.7319" height="31.2335" fill="#A9A8A8"/>
<rect x="41.1443" y="379.309" width="29.7319" height="31.2335" fill="#A9A8A8"/>
<rect x="3.30347" y="339.066" width="29.7319" height="31.2335" fill="#A9A8A8"/>
<rect x="41.1443" y="339.066" width="29.7319" height="31.2335" fill="#A9A8A8"/>
<rect x="3.30347" y="379.309" width="29.7319" height="31.2335" fill="#A9A8A8"/>
<rect x="3.30347" y="419.552" width="29.7319" height="31.2335" fill="#A9A8A8"/>
<rect x="41.1443" y="419.552" width="29.7319" height="31.2335" fill="#A9A8A8"/>
<g clip-path="url(#clip1_197_1885)">
<path d="M61.4392 101.887C61.316 101.941 61.1682 102.101 60.7951 102.565L60.3094 103.171L62.2064 105.57L64.0998 107.968L64.575 107.353C65.0853 106.698 65.1697 106.519 65.1697 106.118C65.1697 105.721 65.0853 105.596 63.6177 103.742C62.5795 102.431 62.1923 101.972 62.0727 101.905C61.8861 101.798 61.6574 101.794 61.4392 101.887Z" fill="white"/>
<path d="M54.6011 110.362L50.2124 115.921L52.1234 118.342L54.031 120.758L58.4302 115.185L62.8294 109.613L60.929 107.206C59.8837 105.882 59.0215 104.798 59.0109 104.798C59.0003 104.798 57.0189 107.299 54.6011 110.362Z" fill="white"/>
<path d="M48.9313 117.637C48.8363 117.989 47.1575 124.614 47.161 124.623C47.1716 124.632 52.6724 122.38 52.6935 122.358C52.7006 122.345 51.8629 121.266 50.8282 119.955C49.5929 118.395 48.9418 117.597 48.9313 117.637Z" fill="white"/>
</g>
<g clip-path="url(#clip2_197_1885)">
<path d="M18.6599 146.825L18.6696 151.568L18.8309 151.679C19.0954 151.871 19.3471 152.228 19.4826 152.611C19.6019 152.945 19.6052 152.959 19.6052 153.467C19.6052 153.975 19.6019 153.993 19.4858 154.318C18.9019 155.95 17.2404 155.807 16.8081 154.096C16.6791 153.57 16.75 152.829 16.9759 152.375C17.1017 152.121 17.363 151.804 17.5404 151.684L17.6856 151.586V146.856C17.6856 144.257 17.6792 142.139 17.6727 142.148C17.6663 142.157 16.7791 144.716 15.7048 147.837L13.7498 153.507L14.1401 154.323C15.0467 156.218 15.5532 158.157 15.6919 160.296L15.7306 160.867H18.1889H20.644L20.6665 160.453C20.7149 159.481 20.8698 158.446 21.1247 157.39C21.4021 156.244 21.7602 155.272 22.3732 154.002C22.499 153.748 22.599 153.516 22.599 153.489C22.599 153.436 18.7212 142.184 18.6825 142.122C18.6664 142.099 18.6567 144.088 18.6599 146.825Z" fill="white"/>
<path d="M17.9888 152.861C17.7888 152.981 17.6629 153.338 17.721 153.623C17.8404 154.211 18.4049 154.309 18.605 153.779C18.8114 153.231 18.3985 152.615 17.9888 152.861Z" fill="white"/>
<path d="M14.782 163.542V164.879H18.1694H21.5568V163.542V162.204H18.1694H14.782V163.542Z" fill="white"/>
</g>
<g clip-path="url(#clip3_197_1885)">
<path d="M49.1845 142.153C49.0748 142.206 48.8877 142.389 48.8071 142.523C48.6522 142.772 48.6522 142.795 48.6522 146.263V149.522L48.7296 149.745C48.8168 150.003 48.9813 150.222 49.1587 150.306C49.3523 150.404 50.1104 150.391 50.304 150.288C50.4911 150.186 50.6879 149.896 50.7653 149.606C50.9008 149.089 51.1105 148.443 51.2654 148.055C51.9945 146.241 53.1139 145.264 54.6141 145.144L54.9754 145.117L54.969 153.048C54.9593 161.808 54.9754 161.081 54.7593 161.366C54.556 161.634 54.327 161.714 53.3333 161.848C52.6236 161.941 52.4881 162.008 52.3074 162.329C52.1719 162.579 52.1267 162.904 52.1429 163.52C52.1655 164.211 52.2622 164.487 52.572 164.714L52.701 164.812H56.9111H61.1212L61.2534 164.714C61.418 164.594 61.5696 164.358 61.6244 164.135C61.6535 164.023 61.6696 163.751 61.6696 163.341C61.6696 162.78 61.6631 162.695 61.5954 162.508C61.5115 162.271 61.3728 162.089 61.205 161.995C61.1437 161.959 60.8115 161.892 60.463 161.843C59.7017 161.741 59.492 161.692 59.292 161.571C59.1048 161.46 58.9274 161.201 58.8822 160.97C58.8564 160.854 58.8467 158.348 58.8467 152.959V145.117L59.2113 145.144C60.7082 145.264 61.8277 146.241 62.56 148.06C62.7149 148.447 62.9213 149.089 63.0568 149.606C63.1343 149.896 63.331 150.186 63.5182 150.288C63.7117 150.391 64.4699 150.404 64.6634 150.306C64.8409 150.222 65.0054 150.003 65.0925 149.745L65.1699 149.522V146.263C65.1699 142.643 65.1764 142.746 64.9538 142.443C64.8925 142.353 64.7893 142.246 64.7215 142.202C64.6118 142.126 64.2763 142.122 56.9433 142.113C51.6525 142.108 49.2523 142.122 49.1845 142.153Z" fill="white"/>
</g>
<g clip-path="url(#clip4_197_1885)">
<path d="M18.2439 183.936V185.273H18.7278H19.2117V183.936V182.598H18.7278H18.2439V183.936Z" fill="white"/>
<path d="M24.1704 185.175L23.1477 186.588L23.4961 187.069L23.8413 187.546L24.8672 186.129L25.8899 184.716L25.5415 184.234L25.1963 183.757L24.1704 185.175Z" fill="white"/>
<path d="M14.3147 185.554L13.9856 186.008L15.018 187.435L16.0503 188.862L16.3891 188.393L16.7278 187.925L15.7051 186.512C15.1405 185.732 14.6728 185.095 14.6631 185.095C14.6534 185.095 14.4985 185.3 14.3147 185.554Z" fill="white"/>
<path d="M17.5761 188.75L17.5826 190.903L16.347 192.107C15.6695 192.771 15.1243 193.328 15.1372 193.346C15.1533 193.364 15.8018 193.649 16.5825 193.984C17.3632 194.318 18.0117 194.608 18.0246 194.626C18.0375 194.643 18.2472 195.539 18.4891 196.618C18.7311 197.697 18.9376 198.598 18.9505 198.615C18.9634 198.633 19.3666 197.88 19.8473 196.944L20.7184 195.236L22.2734 195.245C23.7671 195.259 23.8251 195.254 23.7864 195.178C23.7638 195.134 23.3477 194.363 22.8637 193.462L21.9798 191.826L22.4702 189.838C22.7379 188.746 22.9508 187.841 22.9444 187.827C22.9347 187.818 22.2798 188.113 21.4894 188.483L20.0506 189.16L18.9311 188.006C18.3149 187.373 17.7568 186.798 17.689 186.731L17.5665 186.601L17.5761 188.75Z" fill="white"/>
<path d="M12.437 191.692V192.361H13.4048H14.3727V191.692V191.024H13.4048H12.437V191.692Z" fill="white"/>
<path d="M24.793 193.52V194.189H25.7608H26.7286V193.52V192.851H25.7608H24.793V193.52Z" fill="white"/>
<path d="M14.2468 197.951L12.2756 200.675L12.9628 201.625L13.6467 202.57L15.6179 199.837L17.589 197.109L17.431 196.418C17.3439 196.039 17.2632 195.713 17.2471 195.691C17.2342 195.673 16.9987 195.562 16.7212 195.441L16.2179 195.227L14.2468 197.951Z" fill="white"/>
<path d="M22.5348 196.886L22.196 197.354L23.2284 198.78L24.2608 200.207L24.5995 199.739L24.9382 199.271L23.9059 197.844L22.8735 196.418L22.5348 196.886Z" fill="white"/>
<path d="M19.6636 201.009V202.347H20.1475H20.6314V201.009V199.672H20.1475H19.6636V201.009Z" fill="white"/>
<path d="M10.8949 202.583L10.2109 203.528L10.8981 204.478L11.582 205.423L12.2757 204.464L12.9693 203.506L12.2918 202.57C11.9208 202.057 11.6078 201.633 11.5982 201.633C11.5885 201.633 11.2723 202.061 10.8949 202.583Z" fill="white"/>
</g>
<path d="M56.0872 182.318C56.0356 182.336 55.9549 182.376 55.9098 182.407C55.8098 182.479 53.1998 186.067 53.1998 186.134C53.1998 186.161 53.2676 186.277 53.3547 186.393L53.5063 186.602L54.7806 184.837C55.4807 183.87 56.0969 183.045 56.1485 183.009C56.1969 182.969 56.2711 182.951 56.3098 182.965C56.3453 182.978 57.6358 184.73 59.1778 186.856C61.6297 190.249 61.9749 190.744 61.9749 190.86C61.9749 190.975 61.6426 191.448 59.2907 194.702L56.6034 198.416L53.6934 194.395L50.7803 190.369L51.9739 188.72L53.1676 187.07L52.9998 186.834L52.8288 186.602L51.4674 188.483L50.1028 190.369L50.2705 190.601L50.4383 190.837L48.2574 193.86C47.0573 195.518 46.054 196.945 46.025 197.02C45.9475 197.234 45.9282 197.537 45.9733 197.778C46.0121 197.979 46.1508 198.179 47.9864 200.725L49.9576 203.453H49.1736H48.3929V203.787V204.122H52.7482H57.1034V203.787V203.453H55.0323H52.9579L54.6097 201.171L56.2647 198.884L56.4356 199.12L56.6034 199.352L59.494 195.349C62.5653 191.1 62.4588 191.261 62.4588 190.855C62.4588 190.449 62.5653 190.61 59.5295 186.411C57.9551 184.235 56.6228 182.425 56.5647 182.39C56.4389 182.305 56.213 182.274 56.0872 182.318ZM54.1032 200.934L52.2804 203.453H51.4577H50.6351L48.5284 200.542C46.6928 198.001 46.425 197.618 46.425 197.502C46.425 197.386 46.7024 196.989 48.6091 194.35L50.7964 191.328L53.3611 194.872L55.9259 198.416L54.1032 200.934Z" fill="white"/>
<path d="M58.1421 186.838L57.9744 187.075L58.1453 187.307L58.3163 187.538L58.4841 187.302L58.6518 187.066L58.4809 186.834L58.3099 186.602L58.1421 186.838Z" fill="white"/>
<path d="M58.8197 187.775L58.652 188.011L58.8294 188.252L59.0069 188.497L59.1746 188.261L59.3456 188.029L59.1682 187.784L58.9907 187.538L58.8197 187.775Z" fill="white"/>
<path d="M52.4739 190.391L52.3126 190.614L54.3709 193.459L56.4259 196.298L56.5937 196.062L56.7647 195.83L54.7161 192.999C53.5902 191.444 52.661 190.169 52.6514 190.169C52.6417 190.169 52.561 190.271 52.4739 190.391Z" fill="white"/>
<path d="M57.5874 203.787V204.122H57.8294H58.0713V203.787V203.453H57.8294H57.5874V203.787Z" fill="white"/>
<path d="M58.5552 203.787V204.122H59.2811H60.0069V203.787V203.453H59.2811H58.5552V203.787Z" fill="white"/>
<g clip-path="url(#clip5_197_1885)">
<path d="M22.3855 223.408C22.3307 223.452 20.2499 225.882 17.7625 228.811L13.2395 234.133L15.6204 237.423C16.9302 239.233 18.0045 240.709 18.0077 240.704C18.0109 240.7 19.7595 237.865 21.8887 234.41C24.6245 229.974 25.7762 228.075 25.802 227.959C25.8859 227.576 25.9214 227.634 24.3502 225.458C23.5566 224.357 22.8695 223.43 22.8211 223.394C22.7017 223.309 22.5081 223.314 22.3855 223.408Z" fill="white"/>
<path d="M12.7297 236.928V238.555L12.2877 239.166L11.8425 239.781L12.8749 241.208L13.9072 242.634L14.3428 242.033L14.7783 241.431H15.9494C16.5914 241.431 17.1172 241.417 17.1172 241.395C17.1172 241.377 16.13 240 14.9235 238.333L12.7297 235.301V236.928Z" fill="white"/>
<path d="M10.2715 241.997C9.78112 242.679 9.36173 243.294 9.34237 243.361C9.27139 243.633 9.31979 243.887 9.48109 244.097C9.57465 244.221 11.6749 245.171 11.8523 245.175C12.0459 245.175 12.1588 245.06 12.6975 244.311L13.2298 243.571L12.2136 242.166C11.6555 241.395 11.1909 240.762 11.1813 240.762C11.1716 240.762 10.7619 241.319 10.2715 241.997Z" fill="white"/>
</g>
<path d="M10.312 104.916C10.2318 104.996 10.2109 105.052 10.2109 105.16C10.2109 105.365 16.5124 121.135 16.6413 121.247C16.7737 121.368 17.0314 121.358 17.1499 121.233C17.1986 121.177 17.7386 120.142 18.3447 118.926L19.4489 116.718L21.2324 118.498L23.0124 120.282H23.1866H23.3608L24.5173 119.122L25.6772 117.965V117.791V117.617L23.8937 115.837L22.1137 114.053L24.3222 112.949C25.5379 112.343 26.5725 111.803 26.6282 111.754C26.7536 111.636 26.7641 111.378 26.6456 111.242C26.5272 111.11 10.7822 104.815 10.5662 104.815C10.4443 104.815 10.3956 104.836 10.312 104.916Z" fill="white"/>
<path d="M49.574 265.811C48.7223 265.937 47.9964 266.596 47.7996 267.426C47.7577 267.607 47.7512 268.438 47.7512 274.048C47.7512 279.658 47.7577 280.489 47.7996 280.67C47.977 281.416 48.5965 282.04 49.3643 282.247C49.5611 282.302 49.9772 282.305 56.0101 282.305C62.0429 282.305 62.4591 282.302 62.6559 282.247C63.4237 282.04 64.0431 281.416 64.2205 280.67C64.2625 280.489 64.2689 279.658 64.2689 274.048C64.2689 268.438 64.2625 267.607 64.2205 267.426C64.0818 266.835 63.6495 266.299 63.0946 266.017C62.601 265.772 63.2204 265.791 56.123 265.788C52.6098 265.785 49.6804 265.794 49.574 265.811ZM62.6236 266.573C62.9817 266.722 63.2914 267.032 63.4398 267.391L63.5108 267.569L63.5205 273.919C63.5269 278.76 63.5205 280.305 63.4914 280.415C63.3592 280.915 62.9688 281.316 62.4784 281.452C62.2365 281.52 49.7837 281.52 49.5417 281.452C49.1804 281.352 48.8223 281.067 48.6642 280.757C48.4835 280.402 48.4932 280.815 48.4932 273.996C48.4932 268.338 48.4997 267.675 48.5448 267.517C48.6803 267.055 49.0288 266.696 49.4869 266.547C49.6643 266.493 49.9353 266.489 56.0585 266.496L62.4462 266.502L62.6236 266.573Z" fill="#FAFAFA"/>
<path d="M11.3812 310.138C10.2424 312.396 9.31006 314.264 9.31006 314.289C9.31006 314.315 10.2424 316.182 11.3812 318.441L13.4524 322.548H17.5689H21.6854L23.7566 318.441C24.8954 316.182 25.8278 314.315 25.8278 314.289C25.8278 314.264 24.8954 312.396 23.7566 310.138L21.6854 306.031H17.5689H13.4524L11.3812 310.138ZM22.8888 310.715C24.4309 313.778 24.6728 314.275 24.647 314.348C24.6309 314.395 23.8276 316.007 22.8597 317.926L21.1015 321.412H17.5689H14.0363L12.2781 317.926C11.3103 316.007 10.5069 314.395 10.4908 314.348C10.465 314.275 10.707 313.778 12.2491 310.715L14.0363 307.167H17.5689H21.1015L22.8888 310.715Z" fill="white"/>
<path d="M14.8569 346.309C14.6598 346.367 14.4781 346.506 14.3815 346.672C14.3042 346.803 14.2385 347.124 13.9911 348.615L13.6934 350.399L11.7685 350.411L9.84746 350.422L9.67738 350.538C9.1517 350.913 9.19808 351.701 9.76628 351.991C9.90544 352.06 10.0059 352.064 11.6564 352.064C13.191 352.064 13.3958 352.072 13.3958 352.122C13.3958 352.184 12.6382 356.765 12.6034 356.919L12.5841 357.008H11.2467C10.0021 357.008 9.90544 357.012 9.76628 357.082C9.19808 357.371 9.1517 358.159 9.67738 358.534L9.84746 358.65L11.0844 358.661L12.3174 358.673L12.2981 358.777C12.2865 358.835 12.1628 359.569 12.0198 360.407C11.8497 361.439 11.7762 361.983 11.7917 362.084C11.9038 362.814 12.8624 363.049 13.2992 362.455C13.4306 362.277 13.4267 362.296 13.7476 360.357L14.0259 358.669H16.8823H19.7427L19.7195 358.777C19.7079 358.835 19.5842 359.569 19.4412 360.407C19.1706 362.045 19.1667 362.122 19.3329 362.404C19.619 362.895 20.3998 362.918 20.7206 362.455C20.7747 362.373 20.8366 362.25 20.8559 362.18C20.8752 362.107 21.0144 361.288 21.169 360.361L21.4473 358.673L23.3722 358.661L25.2933 358.65L25.4633 358.534C25.9852 358.163 25.9388 357.371 25.3744 357.085C25.2353 357.012 25.1425 357.008 23.4843 357.008C21.9498 357.008 21.7449 357 21.7449 356.95C21.7449 356.888 22.5025 352.307 22.5373 352.149L22.5566 352.064H23.894C25.1425 352.064 25.2353 352.06 25.3744 351.987C25.9388 351.701 25.9852 350.909 25.4633 350.538L25.2933 350.422L24.0564 350.411L22.8233 350.399L22.8427 350.295C22.8542 350.237 22.9779 349.503 23.121 348.665C23.291 347.634 23.3645 347.089 23.349 346.988C23.2794 346.529 22.804 346.197 22.3556 346.289C22.1392 346.336 21.9072 346.494 21.8067 346.668C21.7256 346.807 21.6637 347.116 21.4125 348.619L21.1149 350.403H18.2584H15.3981L15.4212 350.295C15.4328 350.237 15.5565 349.503 15.6995 348.665C15.8696 347.634 15.9431 347.089 15.9276 346.988C15.8503 346.49 15.3362 346.166 14.8569 346.309ZM20.8172 352.122C20.8172 352.184 20.0596 356.765 20.0248 356.919L20.0055 357.008H17.1645C14.6404 357.008 14.3235 357 14.3235 356.95C14.3235 356.888 15.0811 352.307 15.1159 352.149L15.1352 352.064H17.9762C20.5003 352.064 20.8172 352.072 20.8172 352.122Z" fill="white"/>
<path d="M16.4339 386.892C16.0789 386.989 15.8514 387.102 15.6041 387.309C15.2809 387.577 15.0894 387.887 15.0176 388.277L14.9936 388.397L14.8261 388.348C14.7343 388.323 14.5069 388.29 14.3194 388.281C13.7129 388.248 13.1942 388.407 12.7594 388.755C12.3125 389.114 12.1689 389.395 12.1369 389.96L12.113 390.338L11.9694 390.315C11.7459 390.276 11.331 390.292 11.0916 390.35C10.6408 390.457 10.2538 390.738 10.0383 391.106L9.91064 391.322V395.294V399.266L10.0224 399.715C10.162 400.27 10.3974 400.865 10.6089 401.181C11.4068 402.373 12.52 402.989 14.3792 403.264C14.7981 403.325 14.9976 403.335 16.015 403.335C17.0723 403.335 17.208 403.328 17.587 403.261C18.5086 403.096 19.2946 402.834 20.0248 402.444C20.4517 402.218 21.3055 401.549 21.5449 401.252C21.6247 401.155 22.1194 400.529 22.6421 399.864C24.3656 397.661 25.0718 396.815 25.9536 395.901C26.3406 395.501 26.4244 395.323 26.4284 394.904C26.4284 394.594 26.4204 394.571 26.2767 394.335C25.8139 393.576 24.5492 393.273 23.5996 393.689C23.3682 393.79 22.4346 394.51 22.0117 394.913L21.7204 395.191L21.7005 392.643C21.6805 390.128 21.6765 390.092 21.5927 389.911C21.2456 389.169 20.3439 388.739 19.4422 388.888L19.159 388.936L19.135 388.562C19.1071 388.119 19.0113 387.845 18.7959 387.573C18.5246 387.238 18.0977 386.979 17.6349 386.869C17.3077 386.792 16.7571 386.802 16.4339 386.892ZM17.5192 387.935C17.6189 387.99 17.7266 388.093 17.7865 388.19L17.8902 388.348L17.9102 391.435C17.9301 394.342 17.9341 394.529 18.0019 394.61C18.2413 394.907 18.764 394.897 19.0433 394.59C19.1271 394.5 19.1271 394.468 19.147 392.343L19.1669 390.186L19.2747 390.073C19.4103 389.931 19.6816 389.837 19.8771 389.866C20.0646 389.895 20.2641 390.008 20.3599 390.144C20.4437 390.254 20.4437 390.302 20.4636 393.331L20.4836 396.402L20.6033 396.544C20.8945 396.877 21.501 396.954 21.864 396.709C21.9319 396.66 22.0835 396.505 22.1992 396.363C22.674 395.782 23.9667 394.655 24.2819 394.545C24.6928 394.406 25.2514 394.652 25.1955 394.946C25.1835 395.017 24.9681 395.275 24.5412 395.737C23.843 396.492 23.0849 397.409 21.6446 399.25C20.4277 400.8 20.4596 400.765 20.0966 401.075C19.4343 401.64 18.5086 402.053 17.4314 402.26C16.9486 402.353 15.5722 402.376 14.8979 402.305C13.7568 402.185 13.0267 401.937 12.4162 401.468C11.7659 400.968 11.3709 400.264 11.1914 399.273C11.1355 398.982 11.1275 398.417 11.1275 395.236V391.536L11.2632 391.423C11.339 391.361 11.4587 391.303 11.5225 391.29C11.6861 391.261 11.9175 391.355 12.0332 391.497L12.125 391.607V393.031C12.125 394.322 12.133 394.464 12.1968 394.565C12.2965 394.726 12.4481 394.804 12.6915 394.816C12.9509 394.833 13.1464 394.758 13.2621 394.597C13.3379 394.49 13.3419 394.413 13.3618 392.11L13.3818 389.737L13.4935 389.601C13.7249 389.314 14.1757 389.194 14.5029 389.33C14.7104 389.417 14.9019 389.592 14.9537 389.747C14.9817 389.827 14.9976 390.657 14.9976 392.146C14.9976 394.3 15.0016 394.429 15.0734 394.535C15.3008 394.884 15.9472 394.884 16.1626 394.535C16.2305 394.429 16.2345 394.213 16.2345 391.419C16.2345 389.401 16.2504 388.374 16.2783 388.294C16.3262 388.148 16.5417 387.945 16.7252 387.871C16.9327 387.783 17.3077 387.816 17.5192 387.935Z" fill="white"/>
<path d="M63.227 346.343C63.0206 346.44 62.8109 346.679 62.7399 346.888C62.6754 347.088 62.6915 347.427 62.7754 347.588L62.8302 347.698L58.6492 351.879C54.8972 355.631 54.4681 356.07 54.4681 356.16C54.4681 356.283 54.5552 356.367 54.6811 356.367C54.7617 356.367 55.3166 355.825 58.9524 352.189L63.1303 348.011L63.3077 348.079C63.5368 348.166 63.8432 348.15 64.0626 348.04C64.5981 347.776 64.7336 347.008 64.3304 346.566C64.1336 346.356 63.9884 346.292 63.6626 346.279C63.4238 346.266 63.3658 346.275 63.227 346.343ZM63.9207 346.727C64.1658 346.895 64.24 347.172 64.1078 347.427C63.9949 347.646 63.8948 347.705 63.6368 347.705C63.4593 347.705 63.4013 347.692 63.3109 347.627C63.1916 347.54 63.0851 347.337 63.0819 347.188C63.0819 347.043 63.2109 346.814 63.3367 346.73C63.4884 346.627 63.7723 346.627 63.9207 346.727Z" fill="white"/>
<path d="M54.0973 356.463C54.0618 356.48 53.9457 356.576 53.8424 356.686C53.6908 356.841 53.6521 356.899 53.6521 356.983C53.6521 357.105 53.7295 357.173 53.8682 357.173C54.0037 357.173 54.3715 356.805 54.3715 356.67C54.3715 356.618 54.3586 356.56 54.3457 356.538C54.307 356.48 54.1683 356.438 54.0973 356.463Z" fill="white"/>
<path d="M52.7197 357.812C52.3196 358.212 52.2713 358.299 52.3971 358.406C52.5616 358.547 52.6423 358.509 53.0746 358.067C53.4262 357.702 53.4649 357.622 53.3391 357.496C53.2068 357.364 53.1262 357.402 52.7197 357.812Z" fill="white"/>
<path d="M51.4291 359.099C51.1033 359.422 51.0485 359.49 51.0485 359.577C51.0485 359.702 51.1323 359.786 51.2582 359.786C51.3291 359.786 51.4195 359.715 51.6969 359.444C51.8873 359.254 52.0582 359.06 52.0744 359.015C52.126 358.867 52.0227 358.722 51.8679 358.722C51.8389 358.722 51.6421 358.893 51.4291 359.099Z" fill="white"/>
<path d="M50.1227 360.406C49.9259 360.606 49.7549 360.803 49.742 360.845C49.7066 360.967 49.8001 361.077 49.9421 361.077C50.0517 361.077 50.0937 361.045 50.426 360.712C50.7325 360.406 50.7905 360.332 50.7905 360.251C50.7905 360.128 50.7034 360.044 50.5776 360.044C50.5002 360.044 50.4195 360.109 50.1227 360.406Z" fill="white"/>
<path d="M48.645 360.98C48.2966 361.116 48.0837 361.406 48.0546 361.787C48.0353 362.07 48.1095 362.3 48.2837 362.49C48.4676 362.683 48.6289 362.761 48.9063 362.78C49.2322 362.8 49.4322 362.729 49.6483 362.516C49.858 362.303 49.9355 362.096 49.9129 361.787C49.8677 361.151 49.2386 360.751 48.645 360.98ZM49.2289 361.37C49.6709 361.583 49.5999 362.225 49.1193 362.37C48.7902 362.467 48.4353 362.183 48.4353 361.816C48.4353 361.664 48.5708 361.458 48.7257 361.377C48.8999 361.287 49.0515 361.283 49.2289 361.37Z" fill="white"/>
<path d="M48.7698 321.299L56.0102 307.365L63.2506 321.299H48.7698Z" fill="#C4C4C4" stroke="white" stroke-width="4"/>
<g clip-path="url(#clip6_197_1885)">
<path d="M9.31006 427.663V428.567H9.79398H10.2779V428.147V427.728H10.6973H11.1167V427.244V426.76H10.2134H9.31006V427.663Z" fill="white"/>
<path d="M12.2458 427.244V427.728H13.1492H14.0525V427.244V426.76H13.1492H12.2458V427.244Z" fill="white"/>
<path d="M15.1816 427.244V427.728H16.085H16.9883V427.244V426.76H16.085H15.1816V427.244Z" fill="white"/>
<path d="M18.1497 427.244V427.728H19.053H19.9563V427.244V426.76H19.053H18.1497V427.244Z" fill="white"/>
<path d="M21.0854 427.244V427.728H21.9888H22.8921V427.244V426.76H21.9888H21.0854V427.244Z" fill="white"/>
<path d="M24.0212 427.244V427.728H24.4406H24.86V428.147V428.567H25.3439H25.8279V427.663V426.76H24.9246H24.0212V427.244Z" fill="white"/>
<path d="M20.8917 430.002V430.502H21.124H21.3595L20.1013 431.761L18.8431 433.019L18.8335 432.809L18.8238 432.599H18.327H17.8269V433.68V434.761H18.9077H19.9884V434.261V433.764L19.7787 433.754L19.569 433.745L20.8272 432.486L22.0854 431.228V431.464V431.696H22.5854H23.0855V430.599V429.502H21.9886H20.8917V430.002Z" fill="white"/>
<path d="M9.31006 430.599V431.502H9.79398H10.2779V430.599V429.696H9.79398H9.31006V430.599Z" fill="white"/>
<path d="M24.8599 430.599V431.502H25.3438H25.8277V430.599V429.696H25.3438H24.8599V430.599Z" fill="white"/>
<path d="M9.31006 433.535V434.438H9.79398H10.2779V433.535V432.632H9.79398H9.31006V433.535Z" fill="white"/>
<path d="M24.8599 433.535V434.438H25.3438H25.8277V433.535V432.632H25.3438H24.8599V433.535Z" fill="white"/>
<path d="M9.31006 439.439V443.278H13.1491H16.9882V439.439V435.6H13.1491H9.31006V439.439ZM15.9881 439.455V442.31H13.133H10.2779V439.455V436.6H13.133H15.9881V439.455Z" fill="white"/>
<path d="M24.8599 436.503V437.406H25.3438H25.8277V436.503V435.6H25.3438H24.8599V436.503Z" fill="white"/>
<path d="M24.8599 439.439V440.342H25.3438H25.8277V439.439V438.535H25.3438H24.8599V439.439Z" fill="white"/>
<path d="M24.86 441.891V442.31H24.4406H24.0212V442.794V443.278H24.9246H25.8279V442.374V441.471H25.3439H24.86V441.891Z" fill="white"/>
<path d="M18.1497 442.794V443.278H19.053H19.9563V442.794V442.31H19.053H18.1497V442.794Z" fill="white"/>
<path d="M21.0854 442.794V443.278H21.9888H22.8921V442.794V442.31H21.9888H21.0854V442.794Z" fill="white"/>
</g>
<path d="M47.9416 427.116C47.7545 427.232 47.7512 427.248 47.7512 428.4C47.7512 429.803 47.7125 429.738 48.5739 429.738C49.1707 429.738 49.2384 429.719 49.3513 429.532C49.3965 429.454 49.4126 429.351 49.4223 429.09L49.4352 428.745L49.7804 428.732C50.0417 428.722 50.1449 428.706 50.2224 428.661C50.4095 428.548 50.4288 428.48 50.4288 427.883C50.4288 427.019 50.4966 427.061 49.0836 427.061C48.1642 427.061 48.0158 427.07 47.9416 427.116Z" fill="white"/>
<path d="M52.1034 427.116C51.9324 427.222 51.9131 427.296 51.9131 427.883C51.9131 428.48 51.9324 428.548 52.1196 428.661C52.2131 428.719 52.3034 428.722 53.5906 428.722C54.8778 428.722 54.9681 428.719 55.0617 428.661C55.2488 428.548 55.2681 428.48 55.2681 427.883C55.2681 427.293 55.2488 427.216 55.0746 427.112C54.9939 427.067 54.8229 427.061 53.5842 427.061C52.3486 427.064 52.1776 427.067 52.1034 427.116Z" fill="white"/>
<path d="M56.9424 427.116C56.7714 427.222 56.7521 427.296 56.7521 427.883C56.7521 428.48 56.7714 428.548 56.9585 428.661C57.0521 428.719 57.1424 428.722 58.4296 428.722C59.7168 428.722 59.8071 428.719 59.9007 428.661C60.0878 428.548 60.1071 428.48 60.1071 427.883C60.1071 427.293 60.0878 427.216 59.9136 427.112C59.8329 427.067 59.6619 427.061 58.4231 427.061C57.1876 427.064 57.0166 427.067 56.9424 427.116Z" fill="white"/>
<path d="M61.781 427.116C61.6101 427.222 61.5907 427.296 61.5907 427.883C61.5907 428.48 61.6101 428.548 61.7972 428.661C61.8746 428.706 61.9778 428.722 62.2391 428.732L62.5843 428.745L62.5972 429.09C62.6069 429.351 62.623 429.454 62.6682 429.532C62.7811 429.719 62.8488 429.738 63.4456 429.738C64.307 429.738 64.2683 429.803 64.2683 428.4C64.2683 427.245 64.2651 427.228 64.0747 427.112C63.9941 427.067 63.8489 427.061 62.923 427.061C62.0036 427.061 61.8552 427.07 61.781 427.116Z" fill="white"/>
<path d="M47.9417 431.277C47.7481 431.396 47.7513 431.377 47.7513 432.9C47.7513 434.132 47.7578 434.303 47.803 434.384C47.9062 434.558 47.9836 434.577 48.574 434.577C49.1708 434.577 49.2385 434.558 49.3514 434.371C49.4095 434.277 49.4127 434.187 49.4127 432.9C49.4127 431.613 49.4095 431.522 49.3514 431.429C49.2385 431.238 49.1708 431.222 48.5675 431.222C48.1223 431.222 48.0094 431.232 47.9417 431.277Z" fill="white"/>
<path d="M62.8135 431.277C62.7651 431.306 62.7006 431.374 62.6683 431.429C62.6103 431.522 62.6071 431.616 62.6071 432.9C62.6071 434.187 62.6103 434.277 62.6683 434.371C62.7813 434.558 62.849 434.577 63.4458 434.577C64.0362 434.577 64.1136 434.558 64.2168 434.384C64.262 434.303 64.2684 434.132 64.2684 432.9C64.2684 431.371 64.2717 431.39 64.0749 431.274C63.9426 431.196 62.9361 431.2 62.8135 431.277Z" fill="white"/>
<path d="M47.9417 436.116C47.7481 436.235 47.7513 436.216 47.7513 437.739C47.7513 438.971 47.7578 439.142 47.803 439.223C47.9062 439.397 47.9836 439.416 48.574 439.416C49.1708 439.416 49.2385 439.397 49.3514 439.21C49.4095 439.116 49.4127 439.026 49.4127 437.739C49.4127 436.452 49.4095 436.361 49.3514 436.268C49.2385 436.077 49.1708 436.061 48.5675 436.061C48.1223 436.061 48.0094 436.071 47.9417 436.116Z" fill="white"/>
<path d="M62.8135 436.116C62.7651 436.145 62.7006 436.213 62.6683 436.268C62.6103 436.361 62.6071 436.455 62.6071 437.739C62.6071 439.026 62.6103 439.116 62.6683 439.21C62.7813 439.397 62.849 439.416 63.4458 439.416C64.0362 439.416 64.1136 439.397 64.2168 439.223C64.262 439.142 64.2684 438.971 64.2684 437.739C64.2684 436.21 64.2717 436.229 64.0749 436.113C63.9426 436.035 62.9361 436.039 62.8135 436.116Z" fill="white"/>
<path d="M47.942 440.955C47.7549 441.071 47.7517 441.087 47.7517 442.239C47.7517 443.158 47.7582 443.304 47.8033 443.384C47.9195 443.575 47.9356 443.578 49.0905 443.578C50.4938 443.578 50.4293 443.617 50.4293 442.755C50.4293 442.158 50.4099 442.091 50.2228 441.978C50.1454 441.933 50.0422 441.916 49.7809 441.907L49.4357 441.894L49.4228 441.549C49.4099 441.171 49.3647 441.049 49.2034 440.952C49.0711 440.874 48.0646 440.878 47.942 440.955Z" fill="white"/>
<path d="M62.8134 440.955C62.6554 441.052 62.6102 441.174 62.5973 441.549L62.5844 441.894L62.2392 441.907C61.9779 441.916 61.8747 441.933 61.7973 441.978C61.6101 442.091 61.5908 442.158 61.5908 442.755C61.5908 443.617 61.5263 443.578 62.9296 443.578C64.0845 443.578 64.1006 443.575 64.2168 443.384C64.2619 443.304 64.2684 443.158 64.2684 442.239C64.2684 440.833 64.3103 440.9 63.4393 440.9C62.9941 440.9 62.8812 440.91 62.8134 440.955Z" fill="white"/>
<path d="M52.2193 441.936C52.1031 441.971 52.0418 442.02 51.9676 442.126C51.887 442.242 51.887 443.249 51.9644 443.384C52.0805 443.581 52.0612 443.578 53.5903 443.578C54.8226 443.578 54.9936 443.571 55.0743 443.526C55.2485 443.423 55.2678 443.346 55.2678 442.755C55.2678 442.158 55.2485 442.091 55.0614 441.978C54.9678 441.92 54.871 441.916 53.6387 441.91C52.8838 441.907 52.2741 441.916 52.2193 441.936Z" fill="white"/>
<path d="M57.0584 441.936C56.9422 441.971 56.8809 442.02 56.8067 442.126C56.7261 442.242 56.7261 443.249 56.8035 443.384C56.9197 443.581 56.9003 443.578 58.4294 443.578C59.6618 443.578 59.8327 443.571 59.9134 443.526C60.0876 443.423 60.1069 443.346 60.1069 442.755C60.1069 442.158 60.0876 442.091 59.9005 441.978C59.8069 441.92 59.7101 441.916 58.4778 441.91C57.7229 441.907 57.1132 441.916 57.0584 441.936Z" fill="white"/>
<path d="M58.8078 386.571C58.3982 386.705 58.453 386.644 55.6116 390.007L52.9282 393.191L54.5795 395.151L56.2341 397.11L58.8658 394.014C60.3494 392.269 61.5492 390.826 61.6137 390.712C61.933 390.141 61.9523 389.311 61.6589 388.725C61.6137 388.634 61.2396 388.163 60.8235 387.677C60.0237 386.735 59.9269 386.651 59.5463 386.556C59.3206 386.498 59.0142 386.506 58.8078 386.571Z" fill="white"/>
<path d="M51.4511 394.944L50.6383 395.909L52.2928 397.872L53.9441 399.831L54.7601 398.863L55.5729 397.899L53.9183 395.935L52.267 393.976L51.4511 394.944Z" fill="white"/>
<path d="M47.6999 399.402C46.4453 400.891 45.4036 402.146 45.3842 402.192C45.3649 402.238 45.3488 402.357 45.3488 402.46C45.3488 402.77 45.51 402.996 45.7584 403.034C45.9325 403.061 53.1699 401.833 53.315 401.752C53.544 401.622 53.6504 401.22 53.5279 400.949C53.5021 400.891 52.6925 399.911 51.7282 398.771L49.9769 396.693L47.6999 399.402Z" fill="white"/>
<path d="M51.9722 225.911V227.479L52.3711 228.253L52.7699 229.027H49.3596H45.9493V234.254V239.48H51.7528H57.5563L57.1575 240.254L56.7586 241.028V242.596V244.164H58.5535H60.3484V242.596V241.028L59.9495 240.254L59.5506 239.48H62.9609H66.3712V234.254V229.027H60.5678H54.7643L55.1631 228.253L55.562 227.479V225.911V224.343H53.7671H51.9722V225.911ZM54.3654 226.298V227.092L54.0782 227.653C53.9187 227.963 53.7791 228.214 53.7671 228.214C53.7551 228.214 53.6155 227.963 53.456 227.653L53.1688 227.092V226.298V225.504H53.7671H54.3654V226.298ZM50.7756 234.254V238.319H48.9608H47.1459V234.254V230.189H48.9608H50.7756V234.254ZM55.562 234.254V238.319H53.7671H51.9722V234.254V230.189H53.7671H55.562V234.254ZM60.3484 234.254V238.319H58.5535H56.7586V234.254V230.189H58.5535H60.3484V234.254ZM65.1746 234.254V238.319H63.3598H61.545V234.254V230.189H63.3598H65.1746V234.254ZM58.8646 240.854L59.1518 241.416V242.209V243.003H58.5535H57.9552V242.209V241.416L58.2424 240.854C58.4019 240.545 58.5415 240.293 58.5535 240.293C58.5654 240.293 58.7051 240.545 58.8646 240.854Z" fill="#FFFDFD"/>
<path d="M124 88C124 76.9543 132.954 68 144 68H488C499.046 68 508 76.9543 508 88V432C508 443.046 499.046 452 488 452H144C132.954 452 124 443.046 124 432V88Z" fill="white"/>
<path d="M350.923 314.763V304.736L340.896 314.763H350.923Z" fill="#6699FF"/>
<path d="M280.736 314.763V304.736L290.763 314.763H280.736Z" fill="#0000FF"/>
<path d="M280.736 304.736L295.776 319.776L310.816 334.816V314.763L300.789 304.736H280.736Z" fill="#000080"/>
<path d="M350.923 304.736L335.883 319.776L320.843 334.816V314.763L330.869 304.736H350.923Z" fill="#0000B2"/>
<path d="M325.856 259.616H315.829H305.803L292.434 246.247H272.38L282.407 236.22H292.434L302.46 226.194H329.198L339.225 236.22H349.252L359.278 246.247H339.225L325.856 259.616Z" fill="#DD5F00"/>
<path d="M325.856 259.616H315.829L315.829 247.918L315.829 236.22L315.829 226.194H329.198L339.225 236.22H349.252L359.278 246.247H339.225L325.856 259.616Z" fill="#FFBB33"/>
<path d="M315.829 259.616V339.829L310.816 334.816V259.616H315.829Z" fill="#6699FF"/>
<path d="M285.749 229.536L292.434 236.22L315.829 259.616V239.563L295.776 219.509H275.723L265.696 229.536H285.749Z" fill="#FFBB33"/>
<path d="M285.749 209.483L315.829 239.563V219.509L305.803 209.483H285.749Z" fill="#FEEF7E"/>
<path d="M345.909 209.483L315.829 239.563V219.509L325.856 209.483H345.909Z" fill="#DD5F00"/>
<path d="M345.909 229.536L339.225 236.22L315.829 259.616V239.563L335.883 219.509H355.936L365.963 229.536H345.909Z" fill="#FEE94E"/>
<path d="M315.829 259.616V339.829L320.843 334.816V259.616H315.829Z" fill="#CCDDFF"/>
<path d="M335.883 339.829H315.829L340.896 314.763H360.949L335.883 339.829Z" fill="#6699FF"/>
<path d="M355.936 329.803L340.896 314.763H360.949V329.803H355.936Z" fill="#CCDDFF"/>
<path d="M295.776 339.829H315.829L290.763 314.763H270.709L295.776 339.829Z" fill="#0000FF"/>
<rect x="310.816" y="259.616" width="5.01332" height="5.01331" fill="#0000FF"/>
<path d="M275.723 329.803L290.763 314.763H270.709V329.803H275.723Z" fill="#6699FF"/>
<rect x="315.829" y="259.616" width="5.01334" height="5.01331" fill="#6699FF"/>
<path d="M190.496 314.763H193.838H195.509V299.723H185.483L180.469 304.736L190.496 314.763Z" fill="#DD5F00"/>
<path d="M200.523 314.763H197.181H195.509V299.723H205.536L210.549 304.736L200.523 314.763Z" fill="#FFBB33"/>
<path d="M193.838 314.763V349.856H196.345V314.763H193.838Z" fill="#6699FF"/>
<path d="M175.456 339.829L185.483 349.856H195.509L185.483 339.829H175.456Z" fill="#0000FF"/>
<path d="M215.563 339.829L205.536 349.856H195.509L205.536 339.829H215.563Z" fill="#0000FF"/>
<path d="M431.136 314.763H434.478H436.149V299.723H426.123L421.109 304.736L431.136 314.763Z" fill="#DD5F00"/>
<path d="M441.163 314.763H437.821H436.149V299.723H446.176L451.189 304.736L441.163 314.763Z" fill="#FFBB33"/>
<path d="M434.478 314.763V349.856H436.985V314.763H434.478Z" fill="#6699FF"/>
<path d="M416.096 339.829L426.123 349.856H436.149L426.123 339.829H416.096Z" fill="#0000FF"/>
<path d="M456.203 339.829L446.176 349.856H436.149L446.176 339.829H456.203Z" fill="#0000FF"/>
<path d="M396.043 319.776L386.016 329.803H406.069L396.043 319.776Z" fill="#DD5F00"/>
<path d="M396.043 319.776V329.803H406.069L396.043 319.776Z" fill="#FFBB33"/>
<path d="M235.616 319.776L225.589 309.749H245.643L235.616 319.776Z" fill="#DD5F00"/>
<path d="M235.616 319.776V309.749H245.643L235.616 319.776Z" fill="#FFBB33"/>
<path d="M360.949 284.683L355.936 289.696H381.003V264.629L375.989 269.643V284.683H360.949Z" fill="#0000B2"/>
<path d="M360.949 174.389L355.936 169.376H381.003V194.443L375.989 189.429V174.389H360.949Z" fill="#0000B2"/>
<path d="M265.696 284.683L270.709 289.696H245.643V264.629L250.656 269.643V284.683H265.696Z" fill="#0000B2"/>
<path d="M265.696 174.389L270.709 169.376H245.643V194.443L250.656 189.429V174.389H265.696Z" fill="#0000B2"/>
<path d="M396.043 219.509L386.016 229.536L396.043 239.563L406.069 229.536L396.043 219.509Z" fill="#FFBB33"/>
<path d="M394.372 177.732V211.154H397.714V181.074L394.372 177.732Z" fill="#FFBB33"/>
<path d="M394.372 281.34V247.918H397.714V277.998L394.372 281.34Z" fill="#FFBB33"/>
<defs>
<clipPath id="clip0_197_1885">
<rect width="16.5177" height="22.8245" fill="white" transform="translate(8.10864 260.982)"/>
</clipPath>
<clipPath id="clip1_197_1885">
<rect width="18.0193" height="22.8245" fill="white" transform="translate(47.1505 101.812)"/>
</clipPath>
<clipPath id="clip2_197_1885">
<rect width="16.5177" height="22.8245" fill="white" transform="translate(9.91064 142.055)"/>
</clipPath>
<clipPath id="clip3_197_1885">
<rect width="16.5177" height="22.8245" fill="white" transform="translate(48.6522 142.055)"/>
</clipPath>
<clipPath id="clip4_197_1885">
<rect width="16.5177" height="22.8245" fill="white" transform="translate(10.2109 182.598)"/>
</clipPath>
<clipPath id="clip5_197_1885">
<rect width="16.5177" height="22.8245" fill="white" transform="translate(9.31006 222.841)"/>
</clipPath>
<clipPath id="clip6_197_1885">
<rect width="16.5177" height="16.5177" fill="white" transform="translate(9.31006 426.76)"/>
</clipPath>
</defs>
</svg>
