<svg width="84" height="83" viewBox="0 0 84 83" fill="none" xmlns="http://www.w3.org/2000/svg">
<path d="M64.6545 22.8461C62.6735 24.2477 60.4801 25.3197 58.1588 26.0208C56.9129 24.5839 55.2572 23.5654 53.4154 23.1032C51.5737 22.641 49.6348 22.7572 47.8611 23.4363C46.0874 24.1154 44.5644 25.3244 43.4981 26.9C42.4317 28.4756 41.8736 30.3417 41.899 32.2458V34.3208C38.2636 34.4154 34.6613 33.6066 31.4129 31.9666C28.1645 30.3266 25.3709 27.9062 23.2809 24.9211C23.2809 24.9211 15.0062 43.5961 33.6243 51.8961C29.3639 54.7968 24.2887 56.2513 19.1436 56.0461C37.7617 66.4211 60.5171 56.0461 60.5171 32.1836C60.5152 31.6056 60.4598 31.029 60.3516 30.4613C62.4629 28.3728 63.9528 25.7359 64.6545 22.8461V22.8461Z" stroke="#6C5CE7" stroke-width="2" stroke-linecap="round" stroke-linejoin="round"/>
</svg>
