<svg width="83" height="83" viewBox="0 0 83 83" fill="none" xmlns="http://www.w3.org/2000/svg">
<path d="M49.7981 33.2002C53.0899 33.2002 56.247 34.5119 58.5747 36.8467C60.9024 39.1815 62.2101 42.3483 62.2101 45.6502V60.1752H53.9354V45.6502C53.9354 44.5495 53.4995 43.494 52.7236 42.7157C51.9477 41.9374 50.8953 41.5002 49.7981 41.5002C48.7008 41.5002 47.6484 41.9374 46.8725 42.7157C46.0966 43.494 45.6607 44.5495 45.6607 45.6502V60.1752H37.386V45.6502C37.386 42.3483 38.6937 39.1815 41.0214 36.8467C43.3491 34.5119 46.5062 33.2002 49.7981 33.2002V33.2002Z" stroke="#6C5CE7" stroke-width="2" stroke-linecap="round" stroke-linejoin="round"/>
<path d="M29.1114 35.2749H20.8367V60.1749H29.1114V35.2749Z" stroke="#6C5CE7" stroke-width="2" stroke-linecap="round" stroke-linejoin="round"/>
<path d="M24.974 29.05C27.259 29.05 29.1114 27.192 29.1114 24.9C29.1114 22.608 27.259 20.75 24.974 20.75C22.689 20.75 20.8367 22.608 20.8367 24.9C20.8367 27.192 22.689 29.05 24.974 29.05Z" stroke="#6C5CE7" stroke-width="2" stroke-linecap="round" stroke-linejoin="round"/>
</svg>
