<svg width="84" height="83" viewBox="0 0 84 83" fill="none" xmlns="http://www.w3.org/2000/svg">
<path d="M0.503418 41.5C0.503418 18.65 19.027 0 41.877 0C64.727 0 83.2505 18.65 83.2505 41.5C83.2505 64.35 64.727 83 41.877 83C19.027 83 0.503418 64.35 0.503418 41.5Z"/>
<path d="M52.2203 20.75H46.0143C43.271 20.75 40.6401 21.8431 38.7004 23.7888C36.7606 25.7345 35.6709 28.3734 35.6709 31.125V37.35H29.4648V45.65H35.6709V62.25H43.9456V45.65H50.1516L52.2203 37.35H43.9456V31.125C43.9456 30.5747 44.1635 30.0469 44.5515 29.6578C44.9394 29.2686 45.4656 29.05 46.0143 29.05H52.2203V20.75Z" stroke="#6C5CE7" stroke-width="2" stroke-linecap="round" stroke-linejoin="round"/>
</svg>
