<svg width="580" height="468" viewBox="0 0 580 468" fill="none" xmlns="http://www.w3.org/2000/svg">
<path d="M541.815 45.6015L497.322 61.384L281.07 320.41L313.943 320.492L541.815 45.6015Z" fill="#0000FF"/>
<path d="M541.822 45.5574L530.635 100.895L314.006 359.652L314.006 320.398L541.822 45.5574Z" fill="#79A3FF"/>
<path d="M262.018 330.339L290.416 330.278L298.038 339.362L233.114 417.295L233.036 365.128L262.018 330.339Z" fill="#FEE94E"/>
<path d="M305.712 382.37L305.661 348.404L298.039 339.32L220.929 432.343L264.544 432.25L305.712 382.37Z" fill="#FFBB33"/>
<path d="M314.019 359.686L281.083 320.413L314.019 320.413L314.019 359.686Z" fill="#79A3FF"/>
<path d="M297.488 340.014L314.031 320.38V359.715L297.488 340.014Z" fill="#0000FF"/>
<path d="M103.413 419.678L88.7627 402.154L103.413 384.631L103.413 419.678Z" fill="#6699FF"/>
<path d="M103.414 419.678L118.065 402.154L103.414 384.631L103.414 419.678Z" fill="#0000FF"/>
<path d="M15.0561 467.994L0.405762 450.471L15.0561 432.948L15.0561 467.994Z" fill="#6699FF"/>
<path d="M15.057 467.994L29.7073 450.471L15.057 432.948L15.057 467.994Z" fill="#0000FF"/>
<path d="M172.417 464.585L157.767 447.062L172.417 429.539L172.417 464.585Z" fill="#6699FF"/>
<path d="M172.418 464.583L187.068 447.06L172.418 429.537L172.418 464.583Z" fill="#0000FF"/>
<path d="M128.239 456.789L110.738 435.857L128.239 414.924V456.789Z" fill="#FFBB33"/>
<path d="M128.239 456.789L145.74 435.857L128.239 414.924V456.789Z" fill="#FEE94E"/>
<path d="M56.384 450.47L38.8833 429.537L56.384 408.605V450.47Z" fill="#FFBB33"/>
<path d="M56.3853 450.47L73.886 429.537L56.3853 408.605V450.47Z" fill="#FEE94E"/>
</svg>
