<svg width="676" height="1565" viewBox="0 0 676 1565" fill="none" xmlns="http://www.w3.org/2000/svg">
<ellipse rx="98.9085" ry="21.8067" transform="matrix(0.377638 0.926698 -0.956938 0.292278 473.127 129.584)" fill="#97E0F6"/>
<ellipse rx="124.467" ry="30.7148" transform="matrix(0.378202 0.926515 -0.957113 0.291826 78.4643 253.531)" fill="#68C4E1"/>
<rect opacity="0.93" width="255.42" height="404.023" transform="matrix(0.382467 0.925118 -0.958418 0.288434 417.875 15.9877)" fill="#68C4E1"/>
<ellipse rx="124.559" ry="33.5942" transform="matrix(0.378644 0.926371 -0.95725 0.291471 467.291 131.416)" fill="#97E0F7"/>
<ellipse rx="99.072" ry="26.8541" transform="matrix(0.378669 0.926363 -0.957258 0.291451 468.124 131.155)" fill="url(#paint0_linear_197_1868)" fill-opacity="0.25"/>
<path d="M509.256 201.188C506.39 199.65 521.416 208.131 509.256 201.188C520.727 207.344 544.217 252.992 554.504 256.572C559.71 258.372 570.749 261.32 576.506 262.433C589.92 265.038 602.266 266.023 612.589 265.332C620.014 264.839 624.599 263.994 629.454 262.254C644.533 256.823 645.052 245.496 630.829 232.955C628.396 230.81 622.33 226.542 618.445 224.252C611.85 220.355 602.976 216.277 593.692 212.862C590.163 211.576 588.405 211.04 581.116 209.002C572.813 206.699 572.526 206.636 567.242 205.687C557.376 203.936 546.344 202.734 533.542 202.043C530.201 201.859 519.285 201.465 509.256 201.188C506.996 200.949 512.873 200.591 512.212 200.585C509.256 201.188 509.256 201.188 509.256 201.188ZM564.797 214.057C566.614 213.414 569.382 213.842 575.073 215.647C594.368 221.791 608.657 230.86 612.335 239.296C613.179 241.179 613.428 243.623 612.933 245.037C612.366 246.657 609.95 246.988 605.964 245.996C604.135 245.537 603.506 245.314 602.48 244.706C600.239 243.406 599.884 242.904 600.094 241.168C600.496 237.37 598.265 233.891 592.828 229.846C587.431 225.813 580.172 222.426 570.713 219.511C566.759 218.301 565.235 217.604 564.258 216.606C563.156 215.46 563.329 214.587 564.797 214.057Z" fill="url(#paint1_linear_197_1868)"/>
<path d="M529.558 739.977C528.448 741.522 527.831 744.072 526.819 751.256C524.55 767.711 521.934 780.999 510.56 834.304C505.108 859.798 499.754 885.446 498.619 891.395C493.462 918.433 490.428 941.223 489.317 961.386C488.775 971.584 488.947 992.674 489.688 1003.41C491.39 1028.44 495.115 1050.61 500.543 1068.23C504.442 1080.9 507.674 1088.39 512.386 1095.81C527.066 1118.83 544.584 1112.8 557.709 1080.28C559.954 1074.72 563.902 1061.51 565.753 1053.32C568.911 1039.41 571.378 1021.41 572.661 1003.1C573.13 996.151 573.204 992.751 573.228 978.769C573.228 962.854 573.204 962.314 572.414 952.502C570.909 934.193 568.072 914.184 563.705 891.395C562.57 885.446 558.548 866.133 554.724 848.442C541.672 787.488 538.095 769.643 535.702 752.956C535.109 748.861 534.419 744.613 534.147 743.454C533.185 739.359 531.112 737.814 529.558 739.977ZM558.598 953.352C560.349 956.133 560.867 961.232 560.522 972.279C559.313 1009.75 551.517 1040.26 540.192 1051.85C537.675 1054.48 534.048 1056.41 531.68 1056.41C528.966 1056.41 527.436 1052.39 527.264 1044.82C527.19 1041.34 527.264 1040.11 527.757 1037.94C528.793 1033.23 529.41 1032.31 532.149 1031.61C538.119 1029.99 542.486 1023.96 546.36 1011.99C550.234 1000.09 552.331 985.335 552.775 967.026C552.948 959.378 553.367 956.288 554.477 953.97C555.76 951.343 557.167 951.112 558.598 953.352Z" fill="url(#paint2_linear_197_1868)"/>
<path d="M613.558 1194.98C612.448 1196.52 611.831 1199.07 610.819 1206.26C608.55 1222.71 605.934 1236 594.56 1289.3C589.108 1314.8 583.754 1340.45 582.619 1346.39C577.462 1373.43 574.428 1396.22 573.317 1416.39C572.775 1426.58 572.947 1447.67 573.688 1458.41C575.39 1483.44 579.115 1505.61 584.543 1523.23C588.442 1535.9 591.674 1543.39 596.386 1550.81C611.066 1573.83 628.584 1567.8 641.709 1535.28C643.954 1529.72 647.902 1516.51 649.753 1508.32C652.911 1494.41 655.378 1476.41 656.661 1458.1C657.13 1451.15 657.204 1447.75 657.228 1433.77C657.228 1417.85 657.204 1417.31 656.414 1407.5C654.909 1389.19 652.072 1369.18 647.705 1346.39C646.57 1340.45 642.548 1321.13 638.724 1303.44C625.672 1242.49 622.095 1224.64 619.702 1207.96C619.109 1203.86 618.419 1199.61 618.147 1198.45C617.185 1194.36 615.112 1192.81 613.558 1194.98ZM642.598 1408.35C644.349 1411.13 644.867 1416.23 644.522 1427.28C643.313 1464.75 635.517 1495.26 624.192 1506.85C621.675 1509.48 618.048 1511.41 615.68 1511.41C612.966 1511.41 611.436 1507.39 611.264 1499.82C611.19 1496.34 611.264 1495.11 611.757 1492.95C612.793 1488.23 613.41 1487.31 616.149 1486.61C622.119 1484.99 626.486 1478.96 630.36 1466.99C634.234 1455.09 636.331 1440.34 636.775 1422.03C636.948 1414.38 637.367 1411.29 638.477 1408.97C639.76 1406.34 641.167 1406.11 642.598 1408.35Z" fill="url(#paint3_linear_197_1868)"/>
<path d="M631.558 316.977C630.448 318.522 629.831 321.072 628.819 328.256C626.55 344.711 623.934 357.999 612.56 411.304C607.108 436.798 601.754 462.446 600.619 468.395C595.462 495.434 592.428 518.223 591.317 538.387C590.775 548.584 590.947 569.674 591.688 580.413C593.39 605.443 597.115 627.615 602.543 645.229C606.442 657.898 609.674 665.392 614.386 672.808C629.066 695.83 646.584 689.804 659.709 657.28C661.954 651.718 665.902 638.508 667.753 630.319C670.911 616.413 673.378 598.413 674.661 580.104C675.13 573.151 675.204 569.752 675.228 555.769C675.228 539.854 675.204 539.314 674.414 529.502C672.909 511.193 670.072 491.185 665.705 468.395C664.57 462.446 660.548 443.133 656.724 425.442C643.672 364.488 640.095 346.643 637.702 329.956C637.109 325.861 636.419 321.612 636.147 320.454C635.185 316.359 633.112 314.814 631.558 316.977ZM660.598 530.352C662.349 533.133 662.867 538.232 662.522 549.279C661.313 586.747 653.517 617.263 642.192 628.851C639.675 631.477 636.048 633.409 633.68 633.409C630.966 633.409 629.436 629.392 629.264 621.821C629.19 618.344 629.264 617.108 629.757 614.945C630.793 610.233 631.41 609.306 634.149 608.61C640.119 606.988 644.486 600.962 648.36 588.988C652.234 577.091 654.331 562.335 654.775 544.026C654.948 536.378 655.367 533.288 656.477 530.97C657.76 528.344 659.167 528.112 660.598 530.352Z" fill="url(#paint4_linear_197_1868)"/>
<defs>
<linearGradient id="paint0_linear_197_1868" x1="134.986" y1="-23.8703" x2="74.6879" y2="42.8659" gradientUnits="userSpaceOnUse">
<stop/>
<stop offset="1" stop-opacity="0"/>
</linearGradient>
<linearGradient id="paint1_linear_197_1868" x1="621.805" y1="240.075" x2="432.835" y2="173.883" gradientUnits="userSpaceOnUse">
<stop stop-color="#EEAEBA"/>
<stop offset="0.665351" stop-color="#FFEEB1" stop-opacity="0"/>
</linearGradient>
<linearGradient id="paint2_linear_197_1868" x1="531.114" y1="1109.66" x2="531.114" y2="739" gradientUnits="userSpaceOnUse">
<stop stop-color="#FFB4A2"/>
<stop offset="0.786458" stop-color="#F2C7A0" stop-opacity="0.44"/>
</linearGradient>
<linearGradient id="paint3_linear_197_1868" x1="615.114" y1="1564.66" x2="615.114" y2="1194" gradientUnits="userSpaceOnUse">
<stop stop-color="#FFCDB2"/>
<stop offset="0.786458" stop-color="#F5D990"/>
</linearGradient>
<linearGradient id="paint4_linear_197_1868" x1="633.114" y1="686.656" x2="633.114" y2="316" gradientUnits="userSpaceOnUse">
<stop stop-color="#E5989B"/>
<stop offset="0.786458" stop-color="#F7D1FD"/>
</linearGradient>
</defs>
</svg>
